<?xml version="1.0"?>
<svg width="256" height="256" xmlns="http://www.w3.org/2000/svg" xmlns:svg="http://www.w3.org/2000/svg" preserveAspectRatio="xMidYMid" version="1.1">
 <g class="layer">
  <title>Layer 1</title>
  <g id="svg_1">
   <path d="m216.86,16.6c-16.57,-7.76 -34.29,-13.39 -52.82,-16.6c-2.27,4.11 -4.93,9.65 -6.76,14.05c-19.7,-2.97 -39.21,-2.97 -58.54,0c-1.83,-4.4 -4.55,-9.94 -6.84,-14.05c-18.55,3.21 -36.29,8.86 -52.86,16.64c-33.42,50.51 -42.48,99.76 -37.95,148.32c22.17,16.55 43.65,26.61 64.77,33.19c5.22,-7.18 9.87,-14.81 13.88,-22.85c-7.64,-2.9 -14.95,-6.48 -21.85,-10.63c1.83,-1.36 3.62,-2.78 5.35,-4.24c42.13,19.7 87.89,19.7 129.51,0c1.76,1.46 3.55,2.88 5.36,4.24c-6.93,4.17 -14.26,7.75 -21.89,10.65c4.01,8.02 8.64,15.67 13.88,22.85c21.14,-6.58 42.64,-16.64 64.81,-33.21c5.32,-56.29 -9.08,-105.09 -38.05,-148.36zm-131.39,118.49c-12.64,0 -23.01,-11.8 -23.01,-26.18c0,-14.37 10.15,-26.2 23.01,-26.2c12.87,0 23.24,11.81 23.02,26.2c0.02,14.38 -10.15,26.18 -23.02,26.18zm85.06,0c-12.65,0 -23.02,-11.8 -23.02,-26.18c0,-14.37 10.15,-26.2 23.02,-26.2c12.86,0 23.23,11.81 23.01,26.2c0,14.38 -10.15,26.18 -23.01,26.18z" fill="#ffffff" fill-rule="nonzero" id="svg_2"/>
  </g>
 </g>
</svg>
